HIERARCHY
ROOT Hips
{
	OFFSET -0.001795 -0.223333 0.028219
	CHANNELS 6 Xposition Yposition Zposition Zrotation Yrotation Xrotation 
	JOINT LeftUpLeg
	{
		OFFSET 0.069520 -0.091406 -0.006815
		CHANNELS 3 Zrotation Yrotation Xrotation
		JOINT LeftLeg
		{
			OFFSET 0.034277 -0.375199 -0.004496
			CHANNELS 3 Zrotation Yrotation Xrotation
			JOINT LeftFoot
			{
				OFFSET -0.013596 -0.397961 -0.043693
				CHANNELS 3 Zrotation Yrotation Xrotation
				JOINT LeftToe
				{
					OFFSET 0.026358 -0.055791 0.119288
					CHANNELS 3 Zrotation Yrotation Xrotation
					End Site
					{
						OFFSET 0.000000 0.000000 0.000000
					}
				}
			}
		}
	}
	JOINT RightUpLeg
	{
		OFFSET -0.067670 -0.090522 -0.004320
		CHANNELS 3 Zrotation Yrotation Xrotation
		JOINT RightLeg
		{
			OFFSET -0.038290 -0.382569 -0.008850
			CHANNELS 3 Zrotation Yrotation Xrotation
			JOINT RightFoot
			{
				OFFSET 0.015774 -0.398415 -0.042312
				CHANNELS 3 Zrotation Yrotation Xrotation
				JOINT RightToe
				{
					OFFSET -0.025372 -0.048144 0.123348
					CHANNELS 3 Zrotation Yrotation Xrotation
					End Site
					{
						OFFSET 0.000000 0.000000 0.000000
					}
				}
			}
		}
	}
	JOINT Spine
	{
		OFFSET -0.002533 0.108963 -0.026696
		CHANNELS 3 Zrotation Yrotation Xrotation
		JOINT Spine1
		{
			OFFSET 0.005487 0.135180 0.001092
			CHANNELS 3 Zrotation Yrotation Xrotation
			JOINT Spine2
			{
				OFFSET 0.001457 0.052922 0.025425
				CHANNELS 3 Zrotation Yrotation Xrotation
				JOINT Neck
				{
					OFFSET -0.002778 0.213870 -0.042857
					CHANNELS 3 Zrotation Yrotation Xrotation
					JOINT Head
					{
						OFFSET 0.005152 0.064970 0.051349
						CHANNELS 3 Zrotation Yrotation Xrotation
						End Site
						{
							OFFSET 0.000000 0.000000 0.000000
						}
					}
				}
				JOINT LeftShoulder
				{
					OFFSET 0.078845 0.121749 -0.034090
					CHANNELS 3 Zrotation Yrotation Xrotation
					JOINT LeftArm
					{
						OFFSET 0.090977 0.030469 -0.008868
						CHANNELS 3 Zrotation Yrotation Xrotation
						JOINT LeftForeArm
						{
							OFFSET 0.259612 -0.012772 -0.027456
							CHANNELS 3 Zrotation Yrotation Xrotation
							JOINT LeftHand
							{
								OFFSET 0.249234 0.008986 -0.001171
								CHANNELS 3 Zrotation Yrotation Xrotation
								End Site
								{
									OFFSET 0.000000 0.000000 0.000000
								}
							}
						}
					}
				}
				JOINT RightShoulder
				{
					OFFSET -0.081759 0.118833 -0.038615
					CHANNELS 3 Zrotation Yrotation Xrotation
					JOINT RightArm
					{
						OFFSET -0.096012 0.032551 -0.009143
						CHANNELS 3 Zrotation Yrotation Xrotation
						JOINT RightForeArm
						{
							OFFSET -0.253742 -0.013329 -0.021401
							CHANNELS 3 Zrotation Yrotation Xrotation
							JOINT RightHand
							{
								OFFSET -0.255298 0.007772 -0.005559
								CHANNELS 3 Zrotation Yrotation Xrotation
								End Site
								{
									OFFSET 0.000000 0.000000 0.000000
								}
							}
						}
					}
				}
			}
		}
	}
}
MOTION
Frames: 9
Frame Time: 0.050000
0.000000 0.954444 0.000000 -1.179640 -11.222580 0.482561 4.127204 0.360802 4.618097 -0.401269 0.177020 -4.115421 3.519956 9.157262 11.348065 0.000000 0.000000 0.000000 -2.887353 0.026944 1.770676 1.476917 -0.181928 -2.453109 1.448783 -2.632519 9.728569 0.000000 0.000000 0.000000 6.898488 0.107753 -1.280587 -5.714291 2.202918 -9.640257 -2.034108 5.986332 19.328729 9.062798 -4.669139 -17.984311 0.000000 0.000000 0.000000 -15.112481 -9.518174 3.901191 -57.093376 -2.410951 -7.194042 -11.714812 -42.230021 6.878922 0.000000 0.000000 0.000000 17.927411 -0.023101 -1.392364 60.737440 1.769747 -6.638338 20.175588 40.825375 9.308295 0.000000 0.000000 0.000000 
0.000151 0.952820 -0.000425 -1.386118 -12.392740 0.818278 4.432587 0.389635 4.923775 -0.806353 0.249207 -5.093908 3.930005 9.723786 11.091197 0.000000 0.000000 0.000000 -2.175066 0.047927 0.883351 0.685504 -0.122410 -2.126000 1.302871 -2.923594 9.456087 0.000000 0.000000 0.000000 7.061080 0.225121 -2.326333 -6.117314 2.401833 -8.377729 -2.198047 6.497019 19.125436 10.494160 -5.590392 -18.026603 0.000000 0.000000 0.000000 -14.604150 -9.293904 3.790559 -57.026273 -2.159792 -7.285127 -13.927356 -46.821215 8.771346 0.000000 0.000000 0.000000 17.718018 -0.009855 -1.391074 60.696068 3.127968 -5.934806 22.770785 44.572239 11.406712 0.000000 0.000000 0.000000 
0.000258 0.952700 -0.001284 -1.022078 -12.069187 0.485200 4.299466 0.359833 4.479811 -0.905590 0.214402 -3.697017 3.774595 9.395169 10.245250 0.000000 0.000000 0.000000 -2.073384 0.007790 1.346579 0.472577 -0.124484 -2.586729 1.171630 -2.997016 9.168328 0.000000 0.000000 0.000000 6.991439 0.237134 -2.403842 -5.602464 2.161339 -9.166844 -2.725894 6.306757 20.317453 9.678607 -5.165800 -17.810607 0.000000 0.000000 0.000000 -15.037699 -9.112156 3.770689 -56.211912 -2.237897 -7.297329 -17.761325 -50.119806 11.434204 0.000000 0.000000 0.000000 17.016497 1.286806 -0.640228 60.965534 5.996974 -4.613246 26.948696 49.728435 15.067249 0.000000 0.000000 0.000000 
0.000251 0.953392 -0.002326 -1.018053 -12.476411 0.515928 4.570550 0.361816 4.497835 -1.083662 0.243871 -4.071115 3.830755 9.583046 11.498492 0.000000 0.000000 0.000000 -2.254753 0.028792 1.242046 1.133716 -0.157645 -2.476785 0.998180 -3.372865 9.153904 0.000000 0.000000 0.000000 7.245632 0.367491 -3.451734 -5.851404 2.303531 -8.196132 -3.142375 6.881063 20.446217 10.055606 -5.372607 -17.739729 0.000000 0.000000 0.000000 -14.480699 -9.754819 3.987423 -56.283615 -2.286219 -7.278893 -21.852509 -55.912678 15.234460 0.000000 0.000000 0.000000 17.111322 2.894858 0.288336 60.632794 9.189247 -2.959891 31.205731 56.406292 20.113725 0.000000 0.000000 0.000000 
0.000193 0.954171 -0.003750 -0.862120 -12.476004 0.275504 4.178355 0.352798 4.231555 -0.827940 0.195786 -3.317565 4.043002 9.916069 11.253030 0.000000 0.000000 0.000000 -2.396136 0.034272 1.284726 1.124289 -0.152296 -2.283211 0.817492 -3.554031 8.810974 0.000000 0.000000 0.000000 7.104514 0.374328 -3.509992 -5.544441 2.206528 -7.645931 -3.455051 7.205850 20.228549 10.258026 -5.440121 -17.762891 0.000000 0.000000 0.000000 -13.897895 -10.310584 4.151061 -56.351408 -2.784377 -7.031412 -25.319361 -60.307836 18.723896 0.000000 0.000000 0.000000 16.830115 3.920246 0.912775 59.719742 12.959819 -0.984835 38.946851 63.405719 28.493368 0.000000 0.000000 0.000000 
0.000103 0.954917 -0.005407 -0.945567 -12.172368 0.342759 4.459473 0.343250 4.237807 -1.359452 0.256388 -3.495711 4.189138 10.251690 11.841159 0.000000 0.000000 0.000000 -2.262784 0.034916 1.117334 1.114311 -0.144320 -1.956013 0.743466 -3.703077 8.872916 0.000000 0.000000 0.000000 7.178371 0.419325 -3.893908 -5.812060 2.318237 -7.727220 -3.401186 7.987117 20.717291 10.636773 -5.554312 -17.921317 0.000000 0.000000 0.000000 -12.885413 -11.155360 4.349376 -56.488242 -3.674927 -6.682488 -32.998118 -63.760266 24.916487 0.000000 0.000000 0.000000 16.183483 5.526565 1.984613 58.773162 17.148956 1.081352 40.759585 69.752145 33.929045 0.000000 0.000000 0.000000 
0.000101 0.954965 -0.007216 -0.863333 -12.041971 0.176566 4.628930 0.324208 3.998385 -1.573001 0.275775 -3.362728 4.174285 10.251057 11.971514 0.000000 0.000000 0.000000 -2.221317 0.039450 0.992354 1.064343 -0.127099 -1.428199 1.126616 -3.005062 9.017819 0.000000 0.000000 0.000000 6.793814 0.384902 -3.708286 -6.031606 2.420796 -7.563749 -3.151716 8.704791 20.449426 11.354531 -5.836902 -18.304594 0.000000 0.000000 0.000000 -12.672313 -11.887860 4.525176 -55.994264 -4.012153 -6.452358 -39.638025 -66.447802 30.616600 0.000000 0.000000 0.000000 15.890275 7.127537 2.971829 57.467344 21.503237 3.226468 35.693583 73.737916 32.661804 0.000000 0.000000 0.000000 
0.000111 0.955163 -0.008874 -0.970087 -11.798507 0.122194 4.991079 0.292789 3.633647 -1.700019 0.279095 -2.903311 3.820356 9.632849 11.537900 0.000000 0.000000 0.000000 -1.840277 0.043185 0.600711 0.741042 -0.083859 -0.736190 0.895629 -3.359821 8.855775 0.000000 0.000000 0.000000 6.803788 0.407631 -3.898647 -6.738085 2.767525 -6.844021 -2.995712 9.105117 20.182650 11.947130 -6.168652 -18.174443 0.000000 0.000000 0.000000 -12.110724 -12.575274 4.706266 -55.412550 -5.154824 -5.848326 -43.936375 -68.113840 34.491266 0.000000 0.000000 0.000000 15.132867 8.803457 3.914984 56.222713 26.003015 5.398787 24.533628 75.089292 24.699684 0.000000 0.000000 0.000000 
0.000226 0.954873 -0.010387 -0.934766 -11.759625 -0.202953 5.009614 0.303628 3.744474 -1.719470 0.279459 -2.808751 3.897436 9.738135 11.204065 0.000000 0.000000 0.000000 -1.878373 0.064840 0.310916 0.667498 -0.050559 0.069977 1.135951 -2.880247 8.862147 0.000000 0.000000 0.000000 6.623341 0.383437 -3.689305 -7.022734 2.906526 -6.640938 -2.977112 9.965872 20.074651 12.518391 -6.395409 -18.314828 0.000000 0.000000 0.000000 -11.516714 -13.377176 4.886301 -55.232871 -5.939832 -5.474937 -45.210736 -69.477093 35.954094 0.000000 0.000000 0.000000 14.113868 10.685563 4.960042 55.166449 30.799694 7.726540 11.308232 74.320681 14.402972 0.000000 0.000000 0.000000 
